<?xml version="1.0" encoding="UTF-8"?>
<!DOCTYPE svg PUBLIC "-//W3C//DTD SVG 1.1//EN" "http://www.w3.org/Graphics/SVG/1.1/DTD/svg11.dtd">
<!-- Creator: CorelDRAW X7 -->
<svg xmlns="http://www.w3.org/2000/svg" xml:space="preserve" width="32.896mm" height="40.6427mm" version="1.1" style="shape-rendering:geometricPrecision; text-rendering:geometricPrecision; image-rendering:optimizeQuality; fill-rule:evenodd; clip-rule:evenodd"
viewBox="0 0 54 67"
 xmlns:xlink="http://www.w3.org/1999/xlink">
 <defs>
  <style type="text/css">
   <![CDATA[
    .str0 {stroke:#5C5B5B;stroke-width:0.125608}
    .fil0 {fill:#FEFEFE}
   ]]>
  </style>
 </defs>
 <g id="Слой_x0020_1">
  <metadata id="CorelCorpID_0Corel-Layer"/>
  <path class="fil0 str0" d="M2 9c-1,-1 -2,-3 -2,-5 1,-3 4,-5 7,-4 0,0 1,1 1,1 17,12 27,31 28,51l11 -6c1,-1 2,-1 4,0 2,0 4,3 3,6 0,1 -1,2 -2,3l-22 12 -21 -12c-2,-1 -3,-3 -2,-6 1,-2 4,-4 6,-3 1,0 1,0 1,0l12 7c-1,-17 -9,-33 -24,-44z"/>
 </g>
</svg>
