<?xml version="1.0" encoding="UTF-8"?>
<!DOCTYPE svg PUBLIC "-//W3C//DTD SVG 1.1//EN" "http://www.w3.org/Graphics/SVG/1.1/DTD/svg11.dtd">
<!-- Creator: CorelDRAW X7 -->
<svg xmlns="http://www.w3.org/2000/svg" xml:space="preserve" width="41.0579mm" height="32.1037mm" version="1.1" style="shape-rendering:geometricPrecision; text-rendering:geometricPrecision; image-rendering:optimizeQuality; fill-rule:evenodd; clip-rule:evenodd"
viewBox="0 0 100 78"
 xmlns:xlink="http://www.w3.org/1999/xlink">
 <defs>
  <style type="text/css">
   <![CDATA[
    .str0 {stroke:#5C5B5B;stroke-width:0.186022}
    .fil0 {fill:#FEFEFE}
   ]]>
  </style>
 </defs>
 <g id="Слой_x0020_1">
  <metadata id="CorelCorpID_0Corel-Layer"/>
  <path class="fil0 str0" d="M14 75c-2,3 -6,4 -9,3 -4,-2 -6,-6 -4,-10 0,0 0,-1 0,-2 19,-24 47,-39 77,-39l-9 -17c0,-1 0,-3 0,-5 2,-4 6,-6 10,-4 2,0 3,1 4,3l17 32 -18 31c-2,3 -6,4 -9,3 -4,-1 -6,-6 -5,-10 1,0 1,-1 1,-1l10 -17c-25,0 -50,12 -65,33z"/>
 </g>
</svg>
