<?xml version="1.0" encoding="UTF-8"?>
<!DOCTYPE svg PUBLIC "-//W3C//DTD SVG 1.1//EN" "http://www.w3.org/Graphics/SVG/1.1/DTD/svg11.dtd">
<!-- Creator: CorelDRAW X7 -->
<svg xmlns="http://www.w3.org/2000/svg" xml:space="preserve" width="52.5208mm" height="74.148mm" version="1.1" style="shape-rendering:geometricPrecision; text-rendering:geometricPrecision; image-rendering:optimizeQuality; fill-rule:evenodd; clip-rule:evenodd"
viewBox="0 0 200 283"
 xmlns:xlink="http://www.w3.org/1999/xlink">
 <defs>
  <style type="text/css">
   <![CDATA[
    .fil0 {fill:#FEFEFE}
   ]]>
  </style>
 </defs>
 <g id="Слой_x0020_1">
  <metadata id="CorelCorpID_0Corel-Layer"/>
  <path class="fil0" d="M43 213l0 53c0,4 3,7 7,7l26 0 0 9 0 0 -38 0 -38 0 0 -9 0 0 26 0c4,0 7,-3 7,-7l0 -53 -6 0c-15,0 -27,-12 -27,-26l0 -83 77 0 0 83c0,14 -12,26 -26,26l-8 0zm21 -15c-2,2 -4,3 -6,4 -3,1 -5,1 -7,-1l0 0c-2,-2 -1,-5 1,-7 2,-1 5,-2 5,-7l0 -69c0,-3 3,-5 5,-5l0 0c3,0 5,2 5,5l0 71c0,4 -2,7 -3,9zm89 -198l25 0 0 9 0 0c-4,0 -7,4 -7,7l0 2 0 51c17,3 29,18 29,35l0 38 0 41 0 82c0,10 -7,18 -17,18l-60 0c-10,0 -18,-8 -18,-18l0 -82 0 -41 0 -38c0,-17 13,-32 30,-35l0 -51 0 -2c0,-3 -3,-7 -7,-7l0 0 0 -9 25 0zm31 268l0 0c3,0 5,-2 5,-5 0,-52 0,-105 0,-157 0,-3 -1,-8 -2,-9 -3,-5 -5,-9 -9,-12 -6,-4 -14,0 -8,7 3,4 9,7 9,14l0 157c0,3 2,5 5,5z"/>
 </g>
</svg>
