<?xml version="1.0" encoding="UTF-8"?>
<!DOCTYPE svg PUBLIC "-//W3C//DTD SVG 1.1//EN" "http://www.w3.org/Graphics/SVG/1.1/DTD/svg11.dtd">
<!-- Creator: CorelDRAW X7 -->
<svg xmlns="http://www.w3.org/2000/svg" xml:space="preserve" width="122.122mm" height="125.185mm" version="1.1" style="shape-rendering:geometricPrecision; text-rendering:geometricPrecision; image-rendering:optimizeQuality; fill-rule:evenodd; clip-rule:evenodd"
viewBox="0 0 311 318"
 xmlns:xlink="http://www.w3.org/1999/xlink">
 <defs>
  <style type="text/css">
   <![CDATA[
    .fil0 {fill:#FEFEFE}
   ]]>
  </style>
 </defs>
 <g id="Слой_x0020_1">
  <metadata id="CorelCorpID_0Corel-Layer"/>
  <g>
   <path class="fil0" d="M192 68c-5,-2 -8,-6 -7,-11 0,-6 6,-10 11,-10 2,0 3,0 3,1l2 1c43,18 73,57 82,102l0 1c5,27 2,56 -9,82l27 -2c2,0 5,2 6,3 5,4 5,11 1,16 -2,1 -5,2 -7,3l-53 2 -28 -41c-3,-5 -3,-10 1,-14 4,-4 11,-4 15,0 1,0 1,1 2,2l16 23c10,-22 12,-46 8,-69l0 -1c-7,-38 -33,-71 -69,-88l-1 0zm0 0l1 0 -1 0zm-166 124c1,5 -1,10 -6,12 -5,2 -12,0 -14,-6 0,-1 -1,-2 -1,-3l0 -1c-5,-47 13,-93 48,-123l0 0c21,-18 48,-30 76,-33l-15 -23c-1,-2 -1,-4 -1,-7 2,-6 8,-9 14,-8 2,1 4,2 6,4l28 45 -22 45c-2,5 -7,7 -12,6 -6,-1 -9,-7 -8,-13 0,-1 1,-1 1,-2l12 -26c-24,3 -46,12 -64,28l-1 0c-29,25 -45,64 -41,104l0 1zm0 0l0 -1 0 1zm190 81c4,-3 10,-3 14,0 5,3 6,10 2,15 0,1 -1,1 -2,2l-1 1c-38,28 -87,35 -130,20l-1 -1c-26,-9 -49,-26 -66,-48l-12 24c-2,2 -4,3 -6,4 -6,1 -12,-2 -14,-8 0,-2 0,-5 1,-7l24 -47 50 -4c5,0 10,3 12,8 1,6 -2,12 -8,13 -1,0 -1,1 -2,1l-29 2c15,19 34,34 56,42l1 0c37,13 78,8 110,-16l1 -1zm0 0l-1 1 1 -1zm-31 -143c27,22 30,62 8,88 -23,26 -62,30 -88,8 -27,-23 -30,-62 -8,-89 22,-26 62,-29 88,-7z"/>
  </g>
 </g>
</svg>
