<?xml version="1.0" encoding="UTF-8"?>
<!DOCTYPE svg PUBLIC "-//W3C//DTD SVG 1.1//EN" "http://www.w3.org/Graphics/SVG/1.1/DTD/svg11.dtd">
<!-- Creator: CorelDRAW X7 -->
<svg xmlns="http://www.w3.org/2000/svg" xml:space="preserve" width="95.4101mm" height="99.5529mm" version="1.1" style="shape-rendering:geometricPrecision; text-rendering:geometricPrecision; image-rendering:optimizeQuality; fill-rule:evenodd; clip-rule:evenodd"
viewBox="0 0 820 856"
 xmlns:xlink="http://www.w3.org/1999/xlink">
 <defs>
  <style type="text/css">
   <![CDATA[
    .fil0 {fill:#419E70}
   ]]>
  </style>
 </defs>
 <g id="Слой_x0020_1">
  <metadata id="CorelCorpID_0Corel-Layer"/>
  <g>
   <path class="fil0" d="M228 556l0 6c13,-12 27,-23 41,-35l67 35 0 -6 -67 -49c-14,17 -28,33 -41,49zm221 -260c36,-2 66,12 66,31 0,19 -30,37 -66,39 -36,2 -66,-12 -66,-31 0,-20 30,-37 66,-39zm-256 5c24,2 44,17 44,34 0,17 -20,29 -44,27 -25,-2 -44,-17 -44,-34 0,-17 19,-30 44,-27zm360 402c10,0 17,7 24,14 5,5 9,11 14,16 6,8 13,17 20,25 6,9 16,18 24,25 12,11 26,22 40,31 15,11 32,21 49,27 8,3 23,8 32,3 2,-2 4,-4 5,-6 8,-14 16,-29 20,-45 3,-12 4,-25 3,-37 -1,-19 -3,-39 -6,-57 -3,-20 -6,-40 -12,-60 -2,-10 -6,-19 -10,-29 -1,-2 -2,-4 -3,-7l-713 0c-16,33 -25,65 -19,102 0,1 0,2 1,2 3,5 16,6 22,5 14,0 30,-4 43,-10 13,-5 27,-12 37,-21 21,-19 55,-24 81,-28l5 -1 3 3c58,47 131,71 206,71 34,0 68,-5 101,-15l36 -12 -3 4zm-134 -612c42,0 82,7 120,21l0 0c46,4 101,-43 125,-65 24,-22 113,-71 141,-33 20,29 20,110 0,154 -20,42 -35,109 -64,161 8,27 12,55 12,84 0,31 -5,60 -13,88l0 0c-3,52 6,53 16,84 1,3 3,6 4,9l0 0c2,6 4,11 6,16l0 0c1,2 2,3 2,5l0 0c1,2 2,5 3,7l0 0 1 2 0 0 0 1 0 0 1 1 0 1c0,0 0,1 1,2l0 0c0,1 0,2 1,3l0 0c0,2 0,4 1,6l0 0 0 1 1 1 0 1 0 0 0 2 0 0 1 2 0 0c1,3 1,6 2,8l0 1 0 2 0 0 1 2 0 1 0 1 0 1 1 2 0 0c0,2 0,4 1,6l0 0 0 2 0 1 0 0 1 2 0 1 0 2 0 1 1 2 0 1 0 2 0 1 1 2 0 1 0 3 0 1 1 2 0 1 0 0 0 3c12,78 10,98 -17,146 -28,47 -146,-51 -167,-79 -53,-69 -43,-52 -80,-44l0 0c-33,10 -68,16 -104,16 -81,0 -154,-28 -212,-74 -23,4 -57,9 -76,26 -35,31 -115,48 -120,19 0,-2 0,-3 0,-5l0 0c0,-2 -1,-3 -1,-5l0 0c0,-2 0,-3 0,-5l0 0c0,-1 0,-3 0,-4l0 0c0,-2 0,-3 0,-5l0 0c0,-1 0,-3 0,-4l0 -1c0,-1 0,-2 0,-4l0 0c0,-1 0,-3 0,-4l0 0c0,-2 0,-3 0,-5l0 0c1,-1 1,-3 1,-4l0 0c0,-1 0,-3 1,-4l0 0c0,-2 0,-3 0,-4l1 -1c0,-1 0,-2 0,-4l0 0 0 0c1,-1 1,-2 1,-4l0 0c1,-1 1,-3 1,-4l0 0c1,-1 1,-3 2,-4l0 0c0,-1 0,-3 1,-4l0 0c0,-2 1,-3 1,-4l0 0c1,-1 1,-3 1,-4l1 0c0,-1 1,-3 1,-4l0 0c1,-1 1,-3 2,-4l0 0c0,-1 1,-2 1,-3l0 -1c1,-1 1,-2 2,-3l0 -1c1,-1 1,-2 1,-3l1 -1c0,-1 1,-2 1,-3l1 -1c0,-1 1,-2 1,-3l1 -1c0,0 0,-1 1,-2l0 0c23,-47 54,-90 53,-146l0 0c-1,-11 -2,-23 -2,-35 0,-29 4,-58 12,-85l0 0 0 0c2,-7 4,-13 6,-20 4,-40 -35,-94 -52,-132 -20,-46 -122,-241 34,-139 19,13 145,110 159,101l0 0c51,-30 111,-47 175,-47zm355 538c0,1 0,2 1,3l-1 -3zm8 34c0,2 0,4 1,6l-1 -6z"/>
  </g>
 </g>
</svg>
