<?xml version="1.0" encoding="UTF-8"?>
<!DOCTYPE svg PUBLIC "-//W3C//DTD SVG 1.1//EN" "http://www.w3.org/Graphics/SVG/1.1/DTD/svg11.dtd">
<!-- Creator: CorelDRAW X7 -->
<svg xmlns="http://www.w3.org/2000/svg" xml:space="preserve" width="60.2604mm" height="73.5436mm" version="1.1" style="shape-rendering:geometricPrecision; text-rendering:geometricPrecision; image-rendering:optimizeQuality; fill-rule:evenodd; clip-rule:evenodd"
viewBox="0 0 341 416"
 xmlns:xlink="http://www.w3.org/1999/xlink">
 <defs>
  <style type="text/css">
   <![CDATA[
    .fil0 {fill:#FEFEFE}
   ]]>
  </style>
 </defs>
 <g id="Слой_x0020_1">
  <metadata id="CorelCorpID_0Corel-Layer"/>
  <path class="fil0" d="M63 0l171 0 0 83c0,5 4,9 10,9l97 0 0 261c0,5 -5,10 -10,10l-268 0c-5,0 -9,-5 -9,-10l0 -343c0,-6 4,-10 9,-10zm189 74l82 0 -82 -69 0 69zm-134 53l159 0c5,0 9,4 9,9l0 0c0,5 -4,10 -9,10l-159 0c-5,0 -10,-5 -10,-10l0 0c0,-5 5,-9 10,-9zm0 45l159 0c5,0 9,4 9,9l0 0c0,6 -4,10 -9,10l-159 0c-5,0 -10,-4 -10,-10l0 0c0,-5 5,-9 10,-9zm0 45l159 0c5,0 9,4 9,9l0 0c0,6 -4,10 -9,10l-159 0c-5,0 -10,-4 -10,-10l0 0c0,-5 5,-9 10,-9zm-111 199l271 0c4,0 7,-4 7,-8l0 -28 -225 0c-13,0 -24,-11 -24,-24l0 -301 -29 0c-4,0 -7,3 -7,7l0 346c0,4 3,8 7,8z"/>
 </g>
</svg>
