<?xml version="1.0" encoding="UTF-8"?>
<!DOCTYPE svg PUBLIC "-//W3C//DTD SVG 1.1//EN" "http://www.w3.org/Graphics/SVG/1.1/DTD/svg11.dtd">
<!-- Creator: CorelDRAW X7 -->
<svg xmlns="http://www.w3.org/2000/svg" xml:space="preserve" width="71.5323mm" height="74.6045mm" version="1.1" style="shape-rendering:geometricPrecision; text-rendering:geometricPrecision; image-rendering:optimizeQuality; fill-rule:evenodd; clip-rule:evenodd"
viewBox="0 0 617 644"
 xmlns:xlink="http://www.w3.org/1999/xlink">
 <defs>
  <style type="text/css">
   <![CDATA[
    .fil0 {fill:#FEFEFE}
   ]]>
  </style>
 </defs>
 <g id="Слой_x0020_1">
  <metadata id="CorelCorpID_0Corel-Layer"/>
  <path class="fil0" d="M362 177c-24,5 -44,23 -45,50 -1,32 1,65 0,96 -2,63 -1,130 0,193 0,26 -3,65 7,87 25,55 90,38 152,39 60,1 119,10 138,-53 4,-16 2,-73 2,-94 0,-36 5,-163 -6,-187 -9,-20 -32,-36 -44,-50l-49 -48c-14,-15 -28,-33 -61,-34 -20,0 -77,-2 -94,1zm100 61c-38,11 16,52 26,63 5,6 8,9 14,14 14,14 32,41 49,36 11,-3 19,-17 3,-33l-58 -58c-6,-6 -20,-25 -34,-22zm-92 -88l79 0 0 -44 -79 0 0 44zm-369 60l0 72 254 0 0 -86c0,-37 -19,-53 -36,-70 -5,-5 -8,-9 -12,-14l-40 -41 -79 0 -19 21c-4,4 -5,4 -8,8 -5,5 -9,9 -13,15 -29,33 -47,32 -47,95zm254 247l-254 0c-2,25 0,52 0,77 -1,25 -3,51 8,71 26,47 72,37 119,37 20,0 56,2 74,-2 21,-5 36,-19 45,-34 11,-20 8,-46 9,-70 0,-23 1,-56 -1,-79zm-245 -105l236 0 1 -35 -237 0 0 35zm0 70l236 0 1 -35 -237 0 0 35zm78 -401l0 23 80 0 0 -44 -79 0 -1 21z"/>
 </g>
</svg>
