<?xml version="1.0" encoding="UTF-8"?>
<!DOCTYPE svg PUBLIC "-//W3C//DTD SVG 1.1//EN" "http://www.w3.org/Graphics/SVG/1.1/DTD/svg11.dtd">
<!-- Creator: CorelDRAW X7 -->
<svg xmlns="http://www.w3.org/2000/svg" xml:space="preserve" width="67.8265mm" height="72.704mm" version="1.1" style="shape-rendering:geometricPrecision; text-rendering:geometricPrecision; image-rendering:optimizeQuality; fill-rule:evenodd; clip-rule:evenodd"
viewBox="0 0 214 230"
 xmlns:xlink="http://www.w3.org/1999/xlink">
 <defs>
  <style type="text/css">
   <![CDATA[
    .str0 {stroke:black;stroke-width:0.24081}
    .fil0 {fill:none}
   ]]>
  </style>
 </defs>
 <g id="Слой_x0020_1">
  <metadata id="CorelCorpID_0Corel-Layer"/>
  <path class="fil0 str0" d="M23 0l168 0c13,0 23,10 23,23l0 184c0,12 -10,23 -23,23l-168 0c-13,0 -23,-11 -23,-23l0 -184c0,-13 10,-23 23,-23zm0 13l168 0c6,0 10,5 10,10l0 184c0,5 -4,10 -10,10l-168 0c-5,0 -10,-5 -10,-10l0 -184c0,-5 5,-10 10,-10zm29 149l110 0 0 15 -110 0 0 -15zm0 -31l110 0 0 15 -110 0 0 -15zm79 -16l0 -14c0,-9 -8,-16 -17,-16l-45 0c-9,0 -17,7 -17,16l0 14 79 0zm-40 -75c12,0 21,9 21,21 0,11 -9,20 -21,20 -11,0 -20,-9 -20,-20 0,-12 9,-21 20,-21z"/>
 </g>
</svg>
